<svg width="320.05" height="49.2" viewBox="0 0 320.05 49.2" xmlns="http://www.w3.org/2000/svg"><g id="svgGroup" stroke-linecap="round" fill-rule="evenodd" font-size="9pt" stroke="#ffffff" stroke-width="0.25mm" fill="#ffffff" style="stroke:#ffffff;stroke-width:0.25mm;fill:#ffffff"><path d="M 238.45 48.2 L 239.45 44.45 A 4.954 4.954 0 0 0 240.032 44.737 Q 240.334 44.864 240.688 44.973 A 9.272 9.272 0 0 0 240.95 45.05 A 6.757 6.757 0 0 0 242.089 45.259 A 8.679 8.679 0 0 0 242.95 45.3 Q 245.05 45.3 246.7 43.95 Q 248.35 42.6 249.85 38.65 L 251 35.65 L 248.6 35.65 L 238.45 12.8 L 242.45 11 L 252.15 32.65 L 259.7 11.2 L 263.85 12.8 L 254.3 38.9 A 35.864 35.864 0 0 1 253.274 41.443 Q 252.722 42.663 252.139 43.657 A 15.43 15.43 0 0 1 251.15 45.15 A 12.134 12.134 0 0 1 249.711 46.755 Q 248.754 47.639 247.702 48.159 A 7.369 7.369 0 0 1 247.4 48.3 A 10.726 10.726 0 0 1 244.072 49.144 A 13.019 13.019 0 0 1 242.85 49.2 Q 241.35 49.2 240.225 48.9 A 10.163 10.163 0 0 1 239.508 48.682 Q 239.172 48.565 238.895 48.437 A 4.307 4.307 0 0 1 238.45 48.2 Z M 91.25 37.6 L 86.75 37.6 L 86.75 11.6 L 91.1 11.6 L 91.1 15.95 Q 92.5 13.85 94.675 12.425 A 8.658 8.658 0 0 1 98.228 11.113 A 11.315 11.315 0 0 1 99.85 11 A 11.612 11.612 0 0 1 102.383 11.259 Q 104.93 11.828 106.425 13.65 Q 108.6 16.3 108.6 20.65 L 108.6 37.6 L 104.1 37.6 L 104.1 21.15 A 9.632 9.632 0 0 0 103.929 19.28 Q 103.624 17.739 102.775 16.65 A 4.29 4.29 0 0 0 99.637 14.973 A 6.031 6.031 0 0 0 99.1 14.95 A 6.561 6.561 0 0 0 95.675 15.932 A 8.677 8.677 0 0 0 94.75 16.575 Q 92.7 18.2 91.25 20.4 L 91.25 37.6 Z M 302.7 37.6 L 298.2 37.6 L 298.2 11.6 L 302.55 11.6 L 302.55 15.95 Q 303.95 13.85 306.125 12.425 A 8.658 8.658 0 0 1 309.678 11.113 A 11.315 11.315 0 0 1 311.3 11 A 11.612 11.612 0 0 1 313.833 11.259 Q 316.38 11.828 317.875 13.65 Q 320.05 16.3 320.05 20.65 L 320.05 37.6 L 315.55 37.6 L 315.55 21.15 A 9.632 9.632 0 0 0 315.379 19.28 Q 315.074 17.739 314.225 16.65 A 4.29 4.29 0 0 0 311.087 14.973 A 6.031 6.031 0 0 0 310.55 14.95 A 6.561 6.561 0 0 0 307.125 15.932 A 8.677 8.677 0 0 0 306.2 16.575 Q 304.15 18.2 302.7 20.4 L 302.7 37.6 Z M 32.4 36.35 L 28.05 38.1 L 24.15 28.1 L 7.95 28.1 L 4.05 38 L 0 36.35 L 13.7 2.6 L 18.9 2.6 L 32.4 36.35 Z M 205.25 36.35 L 200.9 38.1 L 197 28.1 L 180.8 28.1 L 176.9 38 L 172.85 36.35 L 186.55 2.6 L 191.75 2.6 L 205.25 36.35 Z M 41.9 37.6 L 37.4 37.6 L 37.4 16.45 L 33.4 16.45 L 33.4 12.55 L 37.4 12.55 L 37.4 9.5 A 12.747 12.747 0 0 1 37.713 6.591 Q 38.267 4.226 39.801 2.601 A 8.189 8.189 0 0 1 39.85 2.55 A 8.184 8.184 0 0 1 45.052 0.062 A 11.231 11.231 0 0 1 46.25 0 A 14.991 14.991 0 0 1 48.005 0.098 Q 49.002 0.215 49.85 0.475 Q 51.4 0.95 52.8 1.65 L 51.45 5.45 A 19.479 19.479 0 0 0 49.645 4.622 A 21.943 21.943 0 0 0 49.2 4.45 Q 48 4 46.55 4 A 5.401 5.401 0 0 0 45.035 4.202 A 4.146 4.146 0 0 0 43.175 5.325 A 4.231 4.231 0 0 0 42.202 7.01 Q 41.994 7.663 41.929 8.453 A 9.145 9.145 0 0 0 41.9 9.2 L 41.9 12.55 L 49.6 12.55 L 49.6 16.45 L 41.9 16.45 L 41.9 37.6 Z M 285.15 13.7 L 285.15 11.6 L 289.25 11.6 L 289.25 31.3 Q 289.25 33.2 290.175 33.775 Q 291.1 34.35 292.2 34.35 L 291.25 37.85 A 8.861 8.861 0 0 1 289.118 37.614 Q 286.204 36.89 285.45 33.95 A 10.654 10.654 0 0 1 283.895 35.663 A 14.249 14.249 0 0 1 282.325 36.875 A 7.464 7.464 0 0 1 279.848 37.927 Q 278.685 38.2 277.3 38.2 Q 274.05 38.2 271.4 36.55 A 11.473 11.473 0 0 1 267.693 32.787 A 13.961 13.961 0 0 1 267.175 31.875 A 13.614 13.614 0 0 1 265.86 27.904 A 18.322 18.322 0 0 1 265.6 24.75 A 16.571 16.571 0 0 1 266.098 20.616 A 13.984 13.984 0 0 1 267.175 17.75 Q 268.75 14.65 271.525 12.825 A 11.149 11.149 0 0 1 277.122 11.022 A 13.694 13.694 0 0 1 277.9 11 A 11.292 11.292 0 0 1 280.297 11.245 A 9.352 9.352 0 0 1 281.975 11.775 A 13.001 13.001 0 0 1 284.118 12.922 A 11.052 11.052 0 0 1 285.15 13.7 Z M 58.8 37.6 L 54.3 37.6 L 54.3 11.6 L 58.65 11.6 L 58.65 17.25 Q 59.3 15.6 60.4 14.175 Q 61.5 12.75 63.15 11.875 Q 64.8 11 67 11 Q 67.75 11 68.5 11.075 A 9.486 9.486 0 0 1 69.027 11.142 Q 69.277 11.181 69.491 11.231 A 4.408 4.408 0 0 1 69.75 11.3 L 68.4 15.95 A 4.881 4.881 0 0 0 67.327 15.644 Q 66.78 15.55 66.15 15.55 A 6.479 6.479 0 0 0 62.835 16.473 A 7.804 7.804 0 0 0 62.625 16.6 A 6.701 6.701 0 0 0 60.889 18.198 Q 60.337 18.911 59.889 19.821 A 11.373 11.373 0 0 0 59.875 19.85 Q 58.994 21.654 58.835 24.264 A 19.545 19.545 0 0 0 58.8 25.45 L 58.8 37.6 Z M 214.25 37.6 L 209.75 37.6 L 209.75 11.6 L 214.1 11.6 L 214.1 17.25 Q 214.75 15.6 215.85 14.175 Q 216.95 12.75 218.6 11.875 Q 220.25 11 222.45 11 Q 223.2 11 223.95 11.075 A 9.486 9.486 0 0 1 224.477 11.142 Q 224.727 11.181 224.941 11.231 A 4.408 4.408 0 0 1 225.2 11.3 L 223.85 15.95 A 4.881 4.881 0 0 0 222.777 15.644 Q 222.23 15.55 221.6 15.55 A 6.479 6.479 0 0 0 218.285 16.473 A 7.804 7.804 0 0 0 218.075 16.6 A 6.701 6.701 0 0 0 216.339 18.198 Q 215.787 18.911 215.339 19.821 A 11.373 11.373 0 0 0 215.325 19.85 Q 214.444 21.654 214.285 24.264 A 19.545 19.545 0 0 0 214.25 25.45 L 214.25 37.6 Z M 144.5 30.55 L 140.25 30.55 L 140.25 22.4 L 132.6 22.4 L 132.6 18.5 L 140.25 18.5 L 140.25 10.35 L 144.5 10.35 L 144.5 18.5 L 152.1 18.5 L 152.1 22.4 L 144.5 22.4 L 144.5 30.55 Z M 78.75 37.6 L 74.25 37.6 L 74.25 11.6 L 78.75 11.6 L 78.75 37.6 Z M 234.2 37.6 L 229.7 37.6 L 229.7 11.6 L 234.2 11.6 L 234.2 37.6 Z M 284.75 30.95 L 284.75 17 Q 283.4 16.05 281.775 15.475 Q 280.15 14.9 278.35 14.9 Q 275.95 14.9 274.125 16.125 A 8.15 8.15 0 0 0 271.615 18.837 A 9.981 9.981 0 0 0 271.25 19.525 Q 270.2 21.7 270.2 24.6 Q 270.2 27.4 271.25 29.575 A 8.801 8.801 0 0 0 272.803 31.848 A 7.848 7.848 0 0 0 274.15 32.975 Q 276 34.2 278.3 34.2 Q 280.2 34.2 281.9 33.275 Q 283.6 32.35 284.75 30.95 Z M 16.05 7.3 L 9.45 24.1 L 22.6 24.1 L 16.05 7.3 Z M 188.9 7.3 L 182.3 24.1 L 195.45 24.1 L 188.9 7.3 Z M 76.5 7.15 Q 75.2 7.15 74.275 6.2 A 3.322 3.322 0 0 1 73.596 5.209 A 2.996 2.996 0 0 1 73.35 4 A 3.994 3.994 0 0 1 73.465 3.016 A 2.794 2.794 0 0 1 74.2 1.7 A 2.831 2.831 0 0 1 75.672 0.929 A 4.132 4.132 0 0 1 76.5 0.85 A 3.029 3.029 0 0 1 78.696 1.746 A 3.7 3.7 0 0 1 78.725 1.775 A 3.03 3.03 0 0 1 79.65 3.96 A 3.627 3.627 0 0 1 79.65 4 Q 79.65 5.4 78.8 6.275 A 2.824 2.824 0 0 1 77.248 7.085 A 4.088 4.088 0 0 1 76.5 7.15 Z M 231.95 7.15 Q 230.65 7.15 229.725 6.2 A 3.322 3.322 0 0 1 229.046 5.209 A 2.996 2.996 0 0 1 228.8 4 A 3.994 3.994 0 0 1 228.915 3.016 A 2.794 2.794 0 0 1 229.65 1.7 A 2.831 2.831 0 0 1 231.122 0.929 A 4.132 4.132 0 0 1 231.95 0.85 A 3.029 3.029 0 0 1 234.146 1.746 A 3.7 3.7 0 0 1 234.175 1.775 A 3.03 3.03 0 0 1 235.1 3.96 A 3.627 3.627 0 0 1 235.1 4 Q 235.1 5.4 234.25 6.275 A 2.824 2.824 0 0 1 232.698 7.085 A 4.088 4.088 0 0 1 231.95 7.15 Z" vector-effect="non-scaling-stroke"/></g></svg>