<svg width="56.58" height="21.3" viewBox="0 0 56.58 21.3" xmlns="http://www.w3.org/2000/svg"><g id="svgGroup" stroke-linecap="round" fill-rule="evenodd" font-size="9pt" stroke="#ffffff" stroke-width="0.25mm" fill="#ffffff" style="stroke:#ffffff;stroke-width:0.25mm;fill:#ffffff"><path d="M 19.44 20.25 L 16.83 21.3 L 14.49 15.3 L 4.77 15.3 L 2.43 21.24 L 0 20.25 L 8.22 0 L 11.34 0 L 19.44 20.25 Z M 56.58 20.25 L 53.97 21.3 L 51.63 15.3 L 41.91 15.3 L 39.57 21.24 L 37.14 20.25 L 45.36 0 L 48.48 0 L 56.58 20.25 Z M 29.13 16.77 L 26.58 16.77 L 26.58 11.88 L 21.99 11.88 L 21.99 9.54 L 26.58 9.54 L 26.58 4.65 L 29.13 4.65 L 29.13 9.54 L 33.69 9.54 L 33.69 11.88 L 29.13 11.88 L 29.13 16.77 Z M 9.63 2.82 L 5.67 12.9 L 13.56 12.9 L 9.63 2.82 Z M 46.77 2.82 L 42.81 12.9 L 50.7 12.9 L 46.77 2.82 Z" vector-effect="non-scaling-stroke"/></g></svg>